<?xml version="1.0" encoding="iso-8859-1"?>
<!-- Generator: Adobe Illustrator 18.1.1, SVG Export Plug-In . SVG Version: 6.00 Build 0)  -->
<svg version="1.1" id="Capa_1" xmlns="http://www.w3.org/2000/svg" xmlns:xlink="http://www.w3.org/1999/xlink" x="0px" y="0px"
	 viewBox="0 0 612 612" style="fill:#ffffff;" xml:space="preserve">
<g>
	<g>
		<path d="M504.9,395.756c-28.684,0-52.02,23.342-52.02,52.02c0,28.684,23.336,52.02,52.02,52.02c28.678,0,52.02-23.336,52.02-52.02
			C556.92,419.098,533.578,395.756,504.9,395.756z M504.9,463.076c-8.439,0-15.3-6.861-15.3-15.3c0-8.439,6.861-15.3,15.3-15.3
			s15.3,6.861,15.3,15.3C520.2,456.215,513.339,463.076,504.9,463.076z"/>
		<path d="M125.46,395.756c-28.684,0-52.02,23.342-52.02,52.02c0,28.684,23.336,52.02,52.02,52.02
			c28.678,0,52.02-23.336,52.02-52.02C177.48,419.098,154.138,395.756,125.46,395.756z M125.46,463.076
			c-8.439,0-15.3-6.861-15.3-15.3c0-8.439,6.861-15.3,15.3-15.3s15.3,6.861,15.3,15.3
			C140.76,456.215,133.899,463.076,125.46,463.076z"/>
	</g>
</g>
<g>
</g>
<g>
</g>
<g>
</g>
<g>
</g>
<g>
</g>
<g>
</g>
<g>
</g>
<g>
</g>
<g>
</g>
<g>
</g>
<g>
</g>
<g>
</g>
<g>
</g>
<g>
</g>
<g>
</g>
</svg>
